<!DOCTYPE svg PUBLIC "-//W3C//DTD SVG 1.1//EN" "http://www.w3.org/Graphics/SVG/1.1/DTD/svg11.dtd">

<!-- Uploaded to: SVG Repo, www.svgrepo.com, Transformed by: SVG Repo Mixer Tools -->
<svg fill="#000000" width="800px" height="800px" viewBox="0 0 24 24" id="statistic-grow" data-name="Flat Color" xmlns="http://www.w3.org/2000/svg" class="icon flat-color">

<g id="SVGRepo_bgCarrier" stroke-width="0"/>

<g id="SVGRepo_tracerCarrier" stroke-linecap="round" stroke-linejoin="round"/>

<g id="SVGRepo_iconCarrier">

<path id="primary" d="M21,4H16a1,1,0,0,0,0,2h2.59L13.8,10.78,8.45,8.11a1,1,0,0,0-1.22.25l-5,6a1,1,0,0,0,.13,1.41A1,1,0,0,0,3,16a1,1,0,0,0,.77-.36l4.49-5.39,5.29,2.64a1,1,0,0,0,1.16-.18L20,7.41V10a1,1,0,0,0,2,0V5A1,1,0,0,0,21,4Z" style="fill: #000000;"/>

</g>

</svg>